<svg width="264" height="280" viewBox="0 0 264 280" fill="none" xmlns="http://www.w3.org/2000/svg">
<path d="M132 280C198.274 280 252 226.274 252 160C252 93.7258 198.274 40 132 40C65.7258 40 12 93.7258 12 160C12 226.274 65.7258 280 132 280Z" fill="#E6E6E6"/>
<mask id="mask0" mask-type="alpha" maskUnits="userSpaceOnUse" x="12" y="40" width="240" height="240">
<path d="M132 280C198.274 280 252 226.274 252 160C252 93.7258 198.274 40 132 40C65.7258 40 12 93.7258 12 160C12 226.274 65.7258 280 132 280Z" fill="white"/>
</mask>
<g mask="url(#mask0)">
<path d="M252 40H12V280H252V40Z" fill="#FDCA40"/>
</g>
<mask id="mask1" mask-type="alpha" maskUnits="userSpaceOnUse" x="0" y="0" width="264" height="280">
<path fill-rule="evenodd" clip-rule="evenodd" d="M12 160C12 226.3 65.7 280 132 280C198.3 280 252 226.3 252 160H264V0H0V160H12Z" fill="white"/>
</mask>
<g mask="url(#mask1)">
<path fill-rule="evenodd" clip-rule="evenodd" d="M156 180.6V199H160C199.8 199 232 231.2 232 271V280H32V271C32 231.2 64.2 199 104 199H108V180.6C90.8 172.4 78.4 155.7 76.3 135.9C70.5 135.1 66 130.1 66 124V110C66 104.1 70.3 99.1 76 98.2V92C76 61.1 101.1 36 132 36C162.9 36 188 61.1 188 92V98.2C193.7 99.2 198 104.1 198 110V124C198 130.1 193.5 135.1 187.7 135.9C185.6 155.7 173.2 172.4 156 180.6Z" fill="#D0C6AC"/>
<mask id="mask2" mask-type="alpha" maskUnits="userSpaceOnUse" x="32" y="36" width="200" height="244">
<path fill-rule="evenodd" clip-rule="evenodd" d="M156 180.6V199H160C199.8 199 232 231.2 232 271V280H32V271C32 231.2 64.2 199 104 199H108V180.6C90.8 172.4 78.4 155.7 76.3 135.9C70.5 135.1 66 130.1 66 124V110C66 104.1 70.3 99.1 76 98.2V92C76 61.1 101.1 36 132 36C162.9 36 188 61.1 188 92V98.2C193.7 99.2 198 104.1 198 110V124C198 130.1 193.5 135.1 187.7 135.9C185.6 155.7 173.2 172.4 156 180.6Z" fill="white"/>
</mask>
<g mask="url(#mask2)">
<path d="M264 36H0V280H264V36Z" fill="#EDB98A"/>
</g>
<mask id="mask3" mask-type="alpha" maskUnits="userSpaceOnUse" x="32" y="36" width="200" height="244">
<path fill-rule="evenodd" clip-rule="evenodd" d="M156 180.6V199H160C199.8 199 232 231.2 232 271V280H32V271C32 231.2 64.2 199 104 199H108V180.6C90.8 172.4 78.4 155.7 76.3 135.9C70.5 135.1 66 130.1 66 124V110C66 104.1 70.3 99.1 76 98.2V92C76 61.1 101.1 36 132 36C162.9 36 188 61.1 188 92V98.2C193.7 99.2 198 104.1 198 110V124C198 130.1 193.5 135.1 187.7 135.9C185.6 155.7 173.2 172.4 156 180.6Z" fill="white"/>
</mask>
<g mask="url(#mask3)">
<path fill-rule="evenodd" clip-rule="evenodd" d="M188 115V138C188 168.9 162.9 194 132 194C101.1 194 76 168.9 76 138V115V130C76 160.9 101.1 186 132 186C162.9 186 188 160.9 188 130V115Z" fill="black" fill-opacity="0.1"/>
</g>
<path fill-rule="evenodd" clip-rule="evenodd" d="M166 199.3C203 202.3 232 233.3 232 271.1V280H32V271.1C32 233 61.6 201.8 99 199.2C99 199.6 99 199.9 99 200.3C99 212.2 114 221.8 132.5 221.8C151 221.8 166 212.2 166 200.3C166 200 166 199.6 166 199.3Z" fill="#E6E6E6"/>
<mask id="mask4" mask-type="alpha" maskUnits="userSpaceOnUse" x="32" y="199" width="200" height="81">
<path fill-rule="evenodd" clip-rule="evenodd" d="M166 199.3C203 202.3 232 233.3 232 271.1V280H32V271.1C32 233 61.6 201.8 99 199.2C99 199.6 99 199.9 99 200.3C99 212.2 114 221.8 132.5 221.8C151 221.8 166 212.2 166 200.3C166 200 166 199.6 166 199.3Z" fill="white"/>
</mask>
<g mask="url(#mask4)">
<path d="M264 170H0V280H264V170Z" fill="white"/>
</g>
<mask id="mask5" mask-type="alpha" maskUnits="userSpaceOnUse" x="32" y="199" width="200" height="81">
<path fill-rule="evenodd" clip-rule="evenodd" d="M166 199.3C203 202.3 232 233.3 232 271.1V280H32V271.1C32 233 61.6 201.8 99 199.2C99 199.6 99 199.9 99 200.3C99 212.2 114 221.8 132.5 221.8C151 221.8 166 212.2 166 200.3C166 200 166 199.6 166 199.3Z" fill="white"/>
</mask>
<g mask="url(#mask5)">
<g opacity="0.6">
<g opacity="0.6">
<path opacity="0.6" d="M132.5 228.7C154.37 228.7 172.1 216.656 172.1 201.8C172.1 186.944 154.37 174.9 132.5 174.9C110.63 174.9 92.9 186.944 92.9 201.8C92.9 216.656 110.63 228.7 132.5 228.7Z" fill="black" fill-opacity="0.16"/>
</g>
</g>
</g>
<path fill-rule="evenodd" clip-rule="evenodd" d="M113.1 149.1C114.2 158.6 122.2 166 132 166C141.8 166 149.9 158.6 150.9 149C151 148.2 150.1 147 149.1 147C134.2 147 122.8 147 115.1 147C114 147 113 148.2 113.1 149.1Z" fill="black" fill-opacity="0.7"/>
<mask id="mask6" mask-type="alpha" maskUnits="userSpaceOnUse" x="113" y="147" width="38" height="19">
<path fill-rule="evenodd" clip-rule="evenodd" d="M113.1 149.1C114.2 158.6 122.2 166 132 166C141.8 166 149.9 158.6 150.9 149C151 148.2 150.1 147 149.1 147C134.2 147 122.8 147 115.1 147C114 147 113 148.2 113.1 149.1Z" fill="white"/>
</mask>
<g mask="url(#mask6)">
<path fill-rule="evenodd" clip-rule="evenodd" d="M122 136H143C145.8 136 148 138.2 148 141V147C148 149.8 145.8 152 143 152H122C119.2 152 117 149.8 117 147V141C117 138.2 119.2 136 122 136Z" fill="white"/>
</g>
<mask id="mask7" mask-type="alpha" maskUnits="userSpaceOnUse" x="113" y="147" width="38" height="19">
<path fill-rule="evenodd" clip-rule="evenodd" d="M113.1 149.1C114.2 158.6 122.2 166 132 166C141.8 166 149.9 158.6 150.9 149C151 148.2 150.1 147 149.1 147C134.2 147 122.8 147 115.1 147C114 147 113 148.2 113.1 149.1Z" fill="white"/>
</mask>
<g mask="url(#mask7)">
<path d="M127 180C133.075 180 138 175.075 138 169C138 162.925 133.075 158 127 158C120.925 158 116 162.925 116 169C116 175.075 120.925 180 127 180Z" fill="#FF4F6D"/>
<path d="M137 180C143.075 180 148 175.075 148 169C148 162.925 143.075 158 137 158C130.925 158 126 162.925 126 169C126 175.075 130.925 180 137 180Z" fill="#FF4F6D"/>
</g>
<path fill-rule="evenodd" clip-rule="evenodd" d="M120 130C120 134.4 125.4 138 132 138C138.6 138 144 134.4 144 130" fill="black" fill-opacity="0.16"/>
<path fill-rule="evenodd" clip-rule="evenodd" d="M92.2 112.4C94 108.6 98.1999 106 103 106C107.8 106 112 108.6 113.8 112.4C114.4 113.5 113.6 114.4 112.8 113.8C110.3 111.7 106.9 110.4 103 110.4C99.2999 110.4 95.8999 111.6 93.3999 113.6C92.4999 114.3 91.6 113.6 92.2 112.4Z" fill="black" fill-opacity="0.6"/>
<path fill-rule="evenodd" clip-rule="evenodd" d="M150.2 112.4C152 108.6 156.2 106 161 106C165.8 106 170 108.6 171.8 112.4C172.4 113.5 171.6 114.4 170.8 113.8C168.3 111.7 164.9 110.4 161 110.4C157.3 110.4 153.9 111.6 151.4 113.6C150.5 114.3 149.6 113.6 150.2 112.4Z" fill="black" fill-opacity="0.6"/>
<path fill-rule="evenodd" clip-rule="evenodd" d="M102.5 88.1C96.7 88.4 87.3 92.6 87.5 98.4C87.5 98.6 87.8 98.7 87.9 98.5C90.7 95.5 110.2 92.6 117.1 94.1C117.7 94.2 118.2 93.6 117.8 93.2C114.5 89.5 107.7 87.9 102.5 88.1Z" fill="black" fill-opacity="0.6"/>
<path fill-rule="evenodd" clip-rule="evenodd" d="M162.5 88.1C168.3 88.4 177.7 92.6 177.5 98.4C177.5 98.6 177.2 98.7 177.1 98.5C174.3 95.5 154.8 92.6 147.9 94.1C147.3 94.2 146.8 93.6 147.2 93.2C150.5 89.5 157.3 87.9 162.5 88.1Z" fill="black" fill-opacity="0.6"/>
</g>
<path fill-rule="evenodd" clip-rule="evenodd" d="M99.5421 147.436C90.5888 151.33 83.0339 138.99 80.4744 133.719C75.9032 124.289 79.392 113.463 83.9828 111.171C88.1857 109.074 92.5516 111.783 92.5516 111.783C92.5516 111.783 100.002 118.787 101.73 133.598C102.767 142.461 99.5421 147.436 99.5421 147.436Z" fill="#9E7D6C"/>
<path fill-rule="evenodd" clip-rule="evenodd" d="M172.187 147.436C181.137 151.33 188.695 138.99 191.255 133.719C195.826 124.289 192.338 113.463 187.747 111.171C183.544 109.074 179.178 111.783 179.178 111.783C179.178 111.783 171.728 118.787 169.999 133.598C168.963 142.461 172.187 147.436 172.187 147.436Z" fill="#9E7D6C"/>
<path fill-rule="evenodd" clip-rule="evenodd" d="M132.002 224C113.812 224 99.5303 210.152 101.121 194.054L105.282 152H158.722L162.878 194.054C164.473 210.152 150.191 224 132.002 224Z" fill="#9E7D6C"/>
<path fill-rule="evenodd" clip-rule="evenodd" d="M179.908 114.419C179.908 65.3557 168 42.0086 131.039 42.0086C97.1358 42.0086 77.9446 65.3556 82.3126 114.401C82.3126 114.401 82.3127 139.595 98.7791 162.101C105.002 170.609 119.159 180.591 131.375 180.913C143.749 181.232 155.418 173.122 163.972 161.765C173.163 149.556 179.908 133.21 179.908 114.419Z" fill="#9E7D6C"/>
<path fill-rule="evenodd" clip-rule="evenodd" d="M131.574 182.4C124.413 182.4 116.046 179.171 109.741 173.971C109.361 173.655 109.307 173.09 109.623 172.711C109.934 172.328 110.5 172.274 110.883 172.589C116.88 177.539 124.807 180.61 131.574 180.61C137.844 180.61 147.103 176.576 154.614 170.567C155.001 170.262 155.563 170.32 155.871 170.706C156.179 171.093 156.118 171.655 155.731 171.963C147.808 178.301 138.323 182.4 131.574 182.4Z" fill="#B0927B"/>
<path fill-rule="evenodd" clip-rule="evenodd" d="M137.649 144.833H128.927C128.027 144.833 127.297 144.104 127.297 143.205C127.297 142.306 128.027 141.577 128.927 141.577H135.976L135.331 116.89C135.324 116.581 135.406 116.275 135.566 116.008L140.538 107.757C141.001 106.986 142.005 106.738 142.775 107.204C143.547 107.666 143.795 108.666 143.329 109.437L138.601 117.281L139.279 143.163C139.289 143.602 139.123 144.026 138.816 144.341C138.51 144.654 138.089 144.833 137.649 144.833Z" fill="#B0927B"/>
<path fill-rule="evenodd" clip-rule="evenodd" d="M97.8415 109.814C97.2114 109.814 96.6027 109.481 96.2768 108.894C95.7935 108.028 96.105 106.94 96.9714 106.46C106.556 101.138 121.189 104.789 121.805 104.946C122.761 105.19 123.341 106.163 123.098 107.122C122.851 108.078 121.877 108.661 120.921 108.415C120.785 108.379 107.043 104.964 98.708 109.589C98.4359 109.743 98.1351 109.814 97.8415 109.814Z" fill="#232E36"/>
<path fill-rule="evenodd" clip-rule="evenodd" d="M164.929 109.814C164.636 109.814 164.335 109.743 164.063 109.589C155.724 104.957 142.795 108.371 142.663 108.407C141.725 108.676 140.729 108.103 140.468 107.148C140.21 106.196 140.776 105.211 141.732 104.954C142.312 104.792 156.2 101.127 165.799 106.46C166.666 106.94 166.977 108.028 166.494 108.894C166.168 109.481 165.56 109.814 164.929 109.814Z" fill="#232E36"/>
<path fill-rule="evenodd" clip-rule="evenodd" d="M158.649 122.58C158.649 126.145 156.465 129.036 153.772 129.036C151.078 129.036 148.897 126.145 148.897 122.58C148.897 119.014 151.078 116.123 153.772 116.123C156.465 116.123 158.649 119.014 158.649 122.58Z" fill="#232E36"/>
<path fill-rule="evenodd" clip-rule="evenodd" d="M108.328 129.036C105.638 129.036 103.453 126.145 103.453 122.58C103.453 119.014 105.638 116.123 108.328 116.123C111.024 116.123 113.205 119.014 113.205 122.58C113.205 126.145 111.024 129.036 108.328 129.036Z" fill="#232E36"/>
<path fill-rule="evenodd" clip-rule="evenodd" d="M132.275 157.913C125.58 157.913 121.194 156.528 120.922 156.438C119.98 156.134 119.468 155.128 119.769 154.187C120.073 153.249 121.083 152.737 122.021 153.034C122.114 153.063 131.312 155.927 143.224 152.999C144.187 152.759 145.154 153.35 145.39 154.309C145.627 155.268 145.04 156.238 144.08 156.474C139.705 157.551 135.691 157.913 132.275 157.913Z" fill="#C44343"/>
<path fill-rule="evenodd" clip-rule="evenodd" d="M132.41 167.588C129.034 167.588 126.825 166.529 126.685 166.461C126.019 166.135 125.747 165.33 126.073 164.664C126.402 164.002 127.197 163.726 127.866 164.048C128.035 164.134 132.131 166.038 137.655 163.891C138.343 163.633 139.123 163.963 139.392 164.657C139.661 165.348 139.32 166.124 138.626 166.393C136.316 167.291 134.2 167.588 132.41 167.588Z" fill="#B0927B"/>
<path fill-rule="evenodd" clip-rule="evenodd" d="M210.25 109.304C216.636 92.5098 198.957 87.1209 198.957 87.1209C198.957 87.1209 199.558 74.9168 191.385 71.71C192.52 53.3907 174.931 49.3978 174.931 49.3978C170.187 34.2688 152.936 35.403 149.451 39.3759C148.123 40.8887 146.663 43.5839 145.223 46.7641C169.69 51.7147 178.063 72.9839 178.167 111.982C180.894 110.613 184.511 109.86 187.464 112.941C192.101 117.773 187.903 141.111 171.842 142.268C169.489 147.531 166.602 152.334 163.394 156.593C162.2 158.177 160.941 159.692 159.625 161.123L162.292 191.472C162.77 196.912 161.711 202.107 159.49 206.65C164.016 224.299 185.068 212.958 185.068 212.958C185.068 212.958 204.208 223.865 212.142 206.813C235.122 209.668 227.278 183.048 227.278 183.048C227.278 183.048 242.432 171.289 226.312 154.104C237.14 140.759 220.52 130.153 220.52 130.153C220.52 130.153 226.004 113.883 210.25 109.304Z" fill="#232E36"/>
<path fill-rule="evenodd" clip-rule="evenodd" d="M114.568 33.4949C114.568 33.4949 128.586 19.0225 141.983 33.0273C153.199 26.1791 164.724 37.5406 161.923 51.0811C159.078 64.8041 147.589 76.2918 128.894 71.6225C111.451 67.5765 105.589 72.9754 107.557 80.1818C111.763 95.5893 101.947 101.658 101.947 101.658C101.947 101.658 95.8727 107.727 102.415 112.864C106.087 116.986 102.628 122.455 100.215 127.522C98.4685 131.18 99.2585 135.445 101.858 138.552C104.48 141.683 108.387 148.756 106.06 154.822C105.546 156.155 105.99 157.598 107.195 158.361C113.824 162.559 112.423 172.518 108.49 175.89C118.774 187.093 105.688 199.702 105.688 199.702C105.688 199.702 110.206 219.152 91.5144 214.174C85.4398 227.711 66.2769 226.312 61.1349 215.106C49.922 223.201 30.7623 213.239 35.436 202.968C19.2339 198.61 29.8295 181.803 29.8295 181.803C29.8295 181.803 17.3684 174.023 30.4503 158.148C20.17 144.608 32.3224 134.337 32.3224 134.337C32.3224 134.337 29.2055 116.442 43.5355 112.708C40.4185 90.92 54.7484 87.806 54.7484 87.806C54.7484 87.806 47.2764 68.5118 67.8369 65.3978C71.5747 43.2979 87.1493 46.1001 87.1493 46.1001C87.1493 46.1001 93.6919 29.2931 114.568 33.4949Z" fill="#232E36"/>
<path fill-rule="evenodd" clip-rule="evenodd" d="M188.961 81.2273C189.897 67.6868 181.486 63.485 174.475 60.2184C170.737 44.8109 157.184 48.5484 154.383 51.3475C146.904 43.8756 136.311 47.1456 133.507 55.0816C130.705 63.0175 127.9 73.1355 140.673 73.1355C140.673 73.1355 155.079 70.5255 161.858 72.2003C168.307 72.8139 161.858 84.0296 172.762 91.1861C173.496 91.667 171.202 93.9884 177.433 104.882C179.295 108.136 178.305 117.601 179.381 117.876C181.343 118.383 181.479 110.683 183.979 109.24C196.36 102.08 195.503 86.8285 188.961 81.2273Z" fill="#232E36"/>
</svg>
