<svg width="264" height="280" viewBox="0 0 264 280" fill="none" xmlns="http://www.w3.org/2000/svg">
<path d="M132 280C198.274 280 252 226.274 252 160C252 93.7258 198.274 40 132 40C65.7258 40 12 93.7258 12 160C12 226.274 65.7258 280 132 280Z" fill="#E6E6E6"/>
<mask id="mask0" mask-type="alpha" maskUnits="userSpaceOnUse" x="12" y="40" width="240" height="240">
<path d="M132 280C198.274 280 252 226.274 252 160C252 93.7258 198.274 40 132 40C65.7258 40 12 93.7258 12 160C12 226.274 65.7258 280 132 280Z" fill="white"/>
</mask>
<g mask="url(#mask0)">
<path d="M252 40H12V280H252V40Z" fill="#FDCA40"/>
</g>
<path fill-rule="evenodd" clip-rule="evenodd" d="M132.002 228C113.812 228 99.5303 214.152 101.121 198.054L105.282 156H158.722L162.878 198.054C164.473 214.152 150.191 228 132.002 228Z" fill="#9E7D6C"/>
<mask id="mask1" mask-type="alpha" maskUnits="userSpaceOnUse" x="0" y="0" width="264" height="280">
<path fill-rule="evenodd" clip-rule="evenodd" d="M12 160C12 226.3 65.7 280 132 280C198.3 280 252 226.3 252 160H264V0H0V160H12Z" fill="white"/>
</mask>
<g mask="url(#mask1)">
<path fill-rule="evenodd" clip-rule="evenodd" d="M166 199.3C203 202.3 232 233.3 232 271.1V280H32V271.1C32 233 61.6 201.8 99 199.2C99 199.6 99 199.9 99 200.3C99 212.2 114 221.8 132.5 221.8C151 221.8 166 212.2 166 200.3C166 200 166 199.6 166 199.3Z" fill="#E6E6E6"/>
<mask id="mask2" mask-type="alpha" maskUnits="userSpaceOnUse" x="32" y="199" width="200" height="81">
<path fill-rule="evenodd" clip-rule="evenodd" d="M166 199.3C203 202.3 232 233.3 232 271.1V280H32V271.1C32 233 61.6 201.8 99 199.2C99 199.6 99 199.9 99 200.3C99 212.2 114 221.8 132.5 221.8C151 221.8 166 212.2 166 200.3C166 200 166 199.6 166 199.3Z" fill="white"/>
</mask>
<g mask="url(#mask2)">
<path d="M264 170H0V280H264V170Z" fill="white"/>
</g>
<mask id="mask3" mask-type="alpha" maskUnits="userSpaceOnUse" x="32" y="199" width="200" height="81">
<path fill-rule="evenodd" clip-rule="evenodd" d="M166 199.3C203 202.3 232 233.3 232 271.1V280H32V271.1C32 233 61.6 201.8 99 199.2C99 199.6 99 199.9 99 200.3C99 212.2 114 221.8 132.5 221.8C151 221.8 166 212.2 166 200.3C166 200 166 199.6 166 199.3Z" fill="white"/>
</mask>
<g mask="url(#mask3)">
<g opacity="0.6">
<g opacity="0.6">
<path opacity="0.6" d="M132.5 228.7C154.37 228.7 172.1 216.656 172.1 201.8C172.1 186.944 154.37 174.9 132.5 174.9C110.63 174.9 92.9 186.944 92.9 201.8C92.9 216.656 110.63 228.7 132.5 228.7Z" fill="black" fill-opacity="0.16"/>
</g>
</g>
</g>
<path fill-rule="evenodd" clip-rule="evenodd" d="M98.0714 168.514C89.1181 172.408 81.5632 160.068 79.0037 154.797C74.4325 145.367 77.9213 134.541 82.5121 132.249C86.715 130.152 91.0809 132.861 91.0809 132.861C91.0809 132.861 98.5313 139.865 100.259 154.676C101.296 163.539 98.0714 168.514 98.0714 168.514Z" fill="#9E7D6C"/>
<path fill-rule="evenodd" clip-rule="evenodd" d="M170.717 168.514C179.667 172.408 187.225 160.068 189.784 154.797C194.355 145.367 190.867 134.541 186.276 132.249C182.073 130.152 177.707 132.861 177.707 132.861C177.707 132.861 170.257 139.865 168.529 154.676C167.492 163.539 170.717 168.514 170.717 168.514Z" fill="#9E7D6C"/>
<path fill-rule="evenodd" clip-rule="evenodd" d="M178.438 135.497C178.438 86.4338 166.529 63.0867 129.568 63.0867C95.6651 63.0867 76.4739 86.4338 80.8419 135.48C80.8419 135.48 80.8419 160.673 97.3084 183.179C103.531 191.687 117.688 201.669 129.905 201.991C142.279 202.31 153.948 194.2 162.501 182.843C171.692 170.634 178.438 154.288 178.438 135.497Z" fill="#9E7D6C"/>
<path fill-rule="evenodd" clip-rule="evenodd" d="M130.104 203.478C122.943 203.478 114.575 200.249 108.27 195.049C107.891 194.734 107.837 194.168 108.152 193.789C108.463 193.406 109.029 193.352 109.412 193.667C115.409 198.617 123.336 201.688 130.104 201.688C136.373 201.688 145.632 197.654 153.144 191.645C153.531 191.341 154.093 191.398 154.4 191.784C154.708 192.171 154.648 192.733 154.261 193.041C146.337 199.379 136.853 203.478 130.104 203.478Z" fill="#B0927B"/>
<path fill-rule="evenodd" clip-rule="evenodd" d="M136.178 165.911H127.456C126.557 165.911 125.826 165.182 125.826 164.283C125.826 163.385 126.557 162.655 127.456 162.655H134.506L133.86 137.968C133.854 137.659 133.935 137.353 134.095 137.086L139.067 128.835C139.53 128.064 140.535 127.816 141.304 128.282C142.077 128.744 142.325 129.744 141.858 130.516L137.13 138.359L137.809 164.241C137.819 164.68 137.652 165.104 137.346 165.42C137.039 165.732 136.619 165.911 136.178 165.911Z" fill="#B0927B"/>
<path fill-rule="evenodd" clip-rule="evenodd" d="M96.3708 130.892C95.7407 130.892 95.132 130.559 94.8061 129.972C94.3228 129.106 94.6343 128.018 95.5007 127.539C105.086 122.216 119.719 125.867 120.335 126.024C121.291 126.268 121.871 127.241 121.627 128.201C121.38 129.156 120.406 129.74 119.45 129.493C119.314 129.457 105.573 126.042 97.2373 130.667C96.9652 130.821 96.6644 130.892 96.3708 130.892Z" fill="#232E36"/>
<path fill-rule="evenodd" clip-rule="evenodd" d="M163.459 130.892C163.165 130.892 162.864 130.821 162.592 130.667C154.253 126.035 141.324 129.45 141.192 129.486C140.254 129.754 139.259 129.181 138.997 128.226C138.739 127.274 139.305 126.289 140.261 126.032C140.841 125.871 154.73 122.205 164.329 127.539C165.195 128.018 165.507 129.106 165.023 129.972C164.697 130.559 164.089 130.892 163.459 130.892Z" fill="#232E36"/>
<path fill-rule="evenodd" clip-rule="evenodd" d="M157.179 143.658C157.179 147.223 154.994 150.114 152.301 150.114C149.608 150.114 147.426 147.223 147.426 143.658C147.426 140.092 149.608 137.201 152.301 137.201C154.994 137.201 157.179 140.092 157.179 143.658Z" fill="#232E36"/>
<path fill-rule="evenodd" clip-rule="evenodd" d="M106.857 150.114C104.167 150.114 101.982 147.223 101.982 143.658C101.982 140.092 104.167 137.201 106.857 137.201C109.553 137.201 111.735 140.092 111.735 143.658C111.735 147.223 109.553 150.114 106.857 150.114Z" fill="#232E36"/>
<path fill-rule="evenodd" clip-rule="evenodd" d="M130.805 178.991C124.109 178.991 119.723 177.606 119.451 177.516C118.509 177.212 117.997 176.206 118.298 175.265C118.603 174.327 119.612 173.816 120.55 174.113C120.643 174.141 129.842 177.005 141.754 174.077C142.717 173.837 143.683 174.428 143.92 175.387C144.156 176.346 143.569 177.316 142.609 177.552C138.234 178.629 134.22 178.991 130.805 178.991Z" fill="#C44343"/>
<path fill-rule="evenodd" clip-rule="evenodd" d="M130.939 188.666C127.563 188.666 125.354 187.607 125.214 187.539C124.548 187.213 124.276 186.408 124.602 185.742C124.931 185.08 125.726 184.804 126.396 185.126C126.564 185.212 130.66 187.117 136.185 184.969C136.872 184.711 137.653 185.041 137.921 185.735C138.19 186.426 137.85 187.202 137.155 187.471C134.846 188.369 132.73 188.666 130.939 188.666Z" fill="#B0927B"/>
<path fill-rule="evenodd" clip-rule="evenodd" d="M208.779 130.382C215.165 113.588 197.486 108.199 197.486 108.199C197.486 108.199 198.087 95.9949 189.915 92.7881C191.05 74.4689 173.46 70.4759 173.46 70.4759C168.717 55.347 151.466 56.4811 147.98 60.4541C146.652 61.9669 145.192 64.6621 143.752 67.8422C168.22 72.7928 176.592 94.062 176.697 133.06C179.424 131.692 183.041 130.938 185.994 134.019C190.63 138.851 186.432 162.19 170.371 163.346C168.019 168.609 165.131 173.412 161.923 177.671C160.729 179.255 159.471 180.77 158.154 182.202L160.821 212.55C161.299 217.99 160.241 223.185 158.019 227.728C162.546 245.377 183.598 234.036 183.598 234.036C183.598 234.036 202.737 244.944 210.671 227.891C233.651 230.747 225.808 204.126 225.808 204.126C225.808 204.126 240.962 192.367 224.842 175.182C235.669 161.837 219.049 151.231 219.049 151.231C219.049 151.231 224.533 134.962 208.779 130.382Z" fill="#232E36"/>
<path fill-rule="evenodd" clip-rule="evenodd" d="M113.097 54.573C113.097 54.573 127.115 40.1006 140.512 54.1054C151.729 47.2572 163.254 58.6188 160.452 72.1593C157.607 85.8822 146.119 97.37 127.424 92.7006C109.98 88.6547 104.118 94.0536 106.087 101.26C110.292 116.667 100.477 122.736 100.477 122.736C100.477 122.736 94.402 128.805 100.945 133.942C104.616 138.064 101.157 143.533 98.7439 148.6C96.9978 152.258 97.7878 156.523 100.387 159.63C103.009 162.761 106.916 169.835 104.589 175.9C104.075 177.233 104.52 178.676 105.725 179.439C112.354 183.637 110.953 193.596 107.019 196.969C117.303 208.171 104.218 220.78 104.218 220.78C104.218 220.78 108.735 240.23 90.0437 235.252C83.9691 248.789 64.8062 247.39 59.6642 236.184C48.4513 244.279 29.2916 234.317 33.9653 224.046C17.7632 219.689 28.3588 202.882 28.3588 202.882C28.3588 202.882 15.8977 195.101 28.9796 179.226C18.6993 165.686 30.8517 155.415 30.8517 155.415C30.8517 155.415 27.7348 137.521 42.0648 133.786C38.9478 111.998 53.2777 108.884 53.2777 108.884C53.2777 108.884 45.8057 89.5899 66.3662 86.4759C70.104 64.376 85.6786 67.1783 85.6786 67.1783C85.6786 67.1783 92.2212 50.3712 113.097 54.573Z" fill="#232E36"/>
<path fill-rule="evenodd" clip-rule="evenodd" d="M187.49 102.305C188.426 88.7649 180.015 84.5631 173.004 81.2965C169.266 65.889 155.713 69.6265 152.912 72.4256C145.433 64.9538 134.841 68.2238 132.036 76.1597C129.234 84.0956 126.429 94.2137 139.202 94.2137C139.202 94.2137 153.609 91.6036 160.387 93.2784C166.837 93.892 160.387 105.108 171.291 112.264C172.025 112.745 169.731 115.067 175.962 125.961C177.824 129.214 176.835 138.679 177.91 138.954C179.872 139.461 180.008 131.761 182.508 130.318C194.889 123.158 194.033 107.907 187.49 102.305Z" fill="#232E36"/>
</g>
</svg>
